<svg t="1771702200177" class="icon" viewBox="0 0 1024 1024" version="1.1" xmlns="http://www.w3.org/2000/svg" p-id="9038" width="200" height="200"><path d="M182 0h60c-0.04 45.68 0.12 91.36-0.08 137.04 11.6 11.48 22.48 23.76 35.12 34.2 7.52-1.28 13.36-6.88 20-10.28 54.08-30.68 117.24-41.96 178.88-40.96 53.32 0.92 107.36-3.48 160 7.52 39.8 7.68 77.8 23.36 111.76 45.4-32 33.16-65.92 64.44-98.2 97.36 14.36 13.96 28.36 28.24 42.6 42.28 33.48-33.36 66.8-66.84 100.28-100.24 30.28 34.2 48.08 78.68 50 124.32 49.52-11.12 93.48-46.4 111.6-94.24 10.92-26.04 10.4-54.68 10.04-82.4h60v41.72c-4.4 63.36-38.44 123.72-91 159.52-28.92 20.76-63.4 31.48-98 38.28 4.88-20.8 7.6-42.12 7.2-63.48-99.36 23.04-199.92 40.28-300.16 58.76-0.12 90.04 0.08 180.04-0.12 270.04a197.78 197.78 0 0 0-29.92 17.76 201.152 201.152 0 0 0-29.92-17.76c-0.2-90-0.04-179.96-0.08-269.96-97.44-17.84-195.08-34.84-291.72-56.48-1.36 0.56-4.08 1.72-5.44 2.28-6.36 18.76 1.56 39.52 4.52 58.64 38.76 9.12 77.88 16.24 116.76 24.6 12.8 56.04 59.64 101.52 115.8 113.36 0.16 42.52 0.12 85.04 0.04 127.56-24.96 10.16-45.04 30.08-55.08 55.12-20.96 0.08-41.88 0.04-62.8 0-4.8-41.92 1.76-85.12-10.56-126.12-13.76-47.48-47.92-84.68-73.64-125.76-13.52-21.28-22.84-44.8-30.56-68.72-36.64-6.88-73.12-18.92-103.16-41.68C36.28 321.84 4.44 263.32 0 202.16V160h60c0 18.52-0.8 37.2 2.4 55.52 7.2 40.6 32.52 77.2 67.2 99.28 16.16 9.28 33.92 19.92 52.8 19.96 2.2-44.88 19.24-88.8 49.28-122.44 33.52 33.36 66.84 66.92 100.4 100.24 14.2-14.16 28.48-28.32 42.52-42.68-28.04-28.08-56.36-55.96-84.12-84.4-4.28-4-7.88-9.72-14.32-10.16-17.84 7.64-30.8 23.44-44.44 36.8-18.08-15.24-32.52-35.56-54.68-45.28-42.52-20.96-84.68-42.56-127.16-63.64 9.56-17.84 19.2-35.64 28.96-53.4 34.44 17.48 68.76 35.08 103.12 52.68 0.08-34.16 0-68.32 0.04-102.48z" p-id="9039" fill="#ffffff"></path><path d="M310.4 0h28.08c39.72 1.76 77.6 20.08 104.6 49.12 11.48-10.56 23.44-20.76 36.88-28.8 9.92-6.4 21.32-11.12 29.16-20.32h5.64c7.84 9.12 19.2 13.8 29.12 20.16 13.52 8.08 25.48 18.4 37.16 28.96C607.56 20.48 644.72 2.4 683.8 0h29.64c11.92 34.56 23.2 69.28 34.8 103.92-34.16-17.36-70.8-30.04-108.56-36.64-55.28-10.68-111.8-6.4-167.68-7.28-67.64-0.96-135.88 12.92-196.24 43.92C287.24 69.28 298.84 34.64 310.4 0zM782 0h60c0.04 33.8-0.08 67.6 0.08 101.4 34.48-16.96 68.8-34.28 103.08-51.56 9.08 17.76 18.08 35.56 27 53.36-42.68 21.64-85.4 43.16-128.32 64.32-21.32 9.44-34.52 29.68-51.48 44.72-13.36-14.56-28.32-27.56-44.4-39 11.4-11.08 22.76-22.24 34.04-33.44V0zM717.68 423.92c39-8.12 78.12-15.52 116.96-24.2-4.76 15.52-10.48 30.8-17.84 45.32-25.36 51.56-70.08 92.52-86.36 148.68-12.56 41.08-4.88 84.56-12.04 126.4-20.48-0.24-40.96-0.04-61.48-0.2-9.76-25-29.84-45.16-54.92-54.92 0-42.6-0.12-85.24 0.08-127.84 56.12-11.56 103.08-57.24 115.6-113.24zM374.92 437c15.6 2.4 31.12 5.48 46.76 7.92 0.32 10 0.4 20 0.24 30-19.04-7.68-35.64-20.72-47-37.92zM602.04 445.16c15.68-2.76 31.32-5.76 47.04-8.16-11.44 17.12-27.8 30.4-46.96 37.88-0.16-9.92-0.16-19.8-0.08-29.72z" p-id="9040" fill="#ffffff"></path><path d="M0 540.16c42.8-0.12 85.56-0.48 128.36 0.12 49.2 1.2 94.6 36.92 108.4 84 8 22.88 1 49.92 16.32 70.36 11.04 17.24 31.44 25.08 51.2 26.16 3.52 20.44 9.28 40.44 18.04 59.28 33.24-0.24 66.52 0.16 99.76-0.24 0.8-15.92-3.64-33.96 5.92-47.96 11.56-16.52 39.4-15.32 49.48 2.16 7.4 14.04 3.8 30.64 4.48 45.88 20.04 0.12 40.08 0.2 60.12-0.12 0.64-15.16-2.96-31.72 4.4-45.72 9.96-17.48 37.72-18.72 49.36-2.36 9.76 14 5.24 32.24 6.12 48.2 32.28-0.04 64.56 0.56 96.8-0.36 8.48-18.88 15.52-38.4 19.68-58.72 30.52 0.56 60.76-22.12 62.92-53.64 0.64-29.52 8.04-59.8 27.4-82.8 21.76-27.48 56.16-44.4 91.24-44.32 41.32-0.28 82.68 0.04 124-0.08v60c-41.44 0.2-82.92-0.32-124.36 0.16-21.32 0.16-41.72 13.16-51.2 32.2-7.2 13.4-6 29-7.92 43.64-4.72 40.76-32.52 77.8-70.16 94.04-22.72 10.84-48.28 10-72.8 10.4-25.48 51.48-70.2 94.44-124.96 113.28-46.28 16.16-98.48 12.6-142.88-7.72-46.92-21-85.16-59.56-107.28-105.8-28.12 0.84-57.64-1.44-82.04-16.88-36.12-20.96-58.84-61.8-58.52-103.52 0.2-31.04-26.08-59.92-57.68-59.64-41.4-0.52-82.8 0.12-124.2-0.24v-59.76zM458.84 958.88c35.12 6.6 71.36 6.68 106.48-0.28-13.52 24.28-31.6 45.32-50.52 65.4h-5.36c-4.88-7.52-10.92-14.08-17.36-20.24-13.44-13.08-23.24-29.2-33.24-44.88z" p-id="9041" fill="#ffffff"></path></svg>