<svg t="1771715513293" class="icon" viewBox="0 0 1024 1024" version="1.1" xmlns="http://www.w3.org/2000/svg" p-id="1680" width="200" height="200"><path d="M939.165358 319.552943c-22.51376-53.228295-54.741765-101.027951-95.785553-142.072763-41.043788-41.043788-88.843444-73.271794-142.072763-95.785553C646.186653 58.381665 587.647399 46.560432 527.313266 46.560432S408.439878 58.381665 353.323583 81.694627c-53.231365 22.51376-101.031021 54.741765-142.073786 95.78453-41.045835 41.043788-73.272817 88.844467-95.785553 142.073786-23.312962 55.118342-35.135218 113.658619-35.135218 173.992753 0 60.33311 11.822257 118.873388 35.134195 173.990706 22.51376 53.230342 54.741765 101.029998 95.785553 142.073786 41.042765 41.043788 88.842421 73.27077 142.073786 95.78453 55.117318 23.312962 113.656573 35.134195 173.990706 35.134195s118.873388-11.821233 173.992753-35.134195c53.229319-22.51376 101.028974-54.741765 142.072763-95.78453 41.045835-41.043788 73.272817-88.843444 95.785553-142.073786 23.310915-55.117318 35.134195-113.657596 35.134195-173.990706C974.299553 433.211563 962.476273 374.672308 939.165358 319.552943zM903.206378 652.329049c-20.545942 48.575322-49.961902 92.203982-87.431282 129.675408-37.473473 37.471426-81.100086 66.88841-129.678478 87.433328-50.28015 21.264303-103.702873 32.047904-158.783353 32.047904-55.078433 0-108.501156-10.782577-158.785399-32.047904-48.575322-20.545942-92.203982-49.961902-129.676431-87.433328s-66.88841-81.100086-87.431282-129.675408c-21.267373-50.281173-32.050973-103.703897-32.050973-158.784376s10.783601-108.503203 32.050973-158.784376c20.542872-48.575322 49.959855-92.206028 87.431282-129.676431 37.47245-37.470403 81.101109-66.887386 129.676431-87.433328 50.284243-21.266349 103.706967-32.04995 158.785399-32.04995 55.081503 0 108.504226 10.783601 158.783353 32.048927 48.578392 20.545942 92.206028 49.962925 129.678478 87.434352 37.468356 37.470403 66.88534 81.101109 87.431282 129.676431 21.266349 50.28015 32.04995 103.703897 32.04995 158.784376S924.473751 602.047876 903.206378 652.329049z" p-id="1681" fill="#ffffff"></path><path d="M292.82879 493.544673l234.484476 234.483452 234.485499-234.483452L527.313266 259.060197 292.82879 493.544673zM527.313266 670.14174 350.716198 493.544673l176.59809-176.59809L703.912379 493.544673 527.313266 670.14174z" p-id="1682" fill="#ffffff"></path></svg>