<svg t="1771702087129" class="icon" viewBox="0 0 1024 1024" version="1.1" xmlns="http://www.w3.org/2000/svg" p-id="1777" width="200" height="200"><path d="M970.852 184.635a46.953 46.953 0 0 0-20.027-14.158c-79.46-32.506-160.039-64.886-240.059-96.146C648.246 49.554 586.358 24.777 523.856 0h-25.608l-16.957 7.061c-122.53 48.38-244.447 97.356-366.345 145.718-15.621 6.501-30.7 12.389-46.954 18.89-12.515 5.291-21.255 13.562-21.255 27.088s7.494 22.43 20.623 27.721c1.806 1.192 5.002 1.806 6.88 2.962 138.784 58.403 278.2 116.805 416.965 175.786 13.761 6.501 26.258 6.501 40.65 0 119.407-50.132 237.55-100.282 356.341-150.431 23.116-8.831 45.003-18.872 67.505-28.317 19.377-8.253 26.258-27.088 15.007-41.879M341.17 223.534c-31.874 23.604-92.517 24.181-126.269 0.596-22.501-15.332-22.501-39.53-0.632-55.459 15.007-11.214 37.509-17.698 54.394-17.698 31.26 0 53.13 4.136 72.507 17.698 21.255 15.928 21.255 39.531 0 54.863m233.196 0c-31.26 24.181-95.027 24.181-126.919 0-21.237-15.928-20.623-39.513 1.264-54.863 19.378-13.562 40.633-17.698 69.383-17.698 15.621 0 37.508 4.136 55.64 16.524 21.887 16.524 22.501 40.11 0.632 55.983m234.424 1.192c-31.874 23.585-92.517 24.181-126.287 0.578-22.501-15.928-22.501-39.531 0-55.46 18.763-14.157 40.019-18.275 62.52-18.275s43.757 4.118 62.52 17.698c23.134 15.928 23.134 38.935 1.247 55.46M466.356 437.713c-30.7-12.388-61.256-25.373-92.516-38.935-108.156-46.014-215.68-90.837-323.835-136.273-10.004-4.714-20.641-7.08-31.26-1.806C4.298 267.779 0 280.167 0 294.326v496.153c0 29.508 13.129 50.15 41.879 61.942 133.149 55.46 265.052 110.919 397.587 166.956 28.768 11.792 49.391-0.596 49.391-30.086V732.076c0-86.123 0-171.56 1.246-257.792 1.806-17.698-5.616-29.49-23.747-36.57M270 680.174c-15.007 21.238-40.633 23.008-58.132 2.944-19.955-21.833-25.571-48.326-22.447-75.414 1.806-14.754 7.494-29.509 14.447-42.475 13.13-22.411 39.387-23.007 57.5-4.136 15.64 15.928 23.766 39.532 23.766 59.595 0 25.95-3.757 43.053-15.007 59.595m704.482-417.777l-416.35 175.172c-17.518 7.675-25.013 18.872-25.013 36.57v257.25c0 86.683 0 172.265 0.614 258.966 0 27.74 20.642 40.705 47.532 29.509l402.59-169.303c26.89-11.215 40-31.279 40-58.403V293.838c-0.614-28.894-21.87-42.475-49.373-31.26M715.173 840.665c-17.517 20.063-42.511 18.89-58.782-2.944-22.502-31.892-19.378-89.157 7.512-118.051 18.746-20.642 43.125-18.872 58.764 4.135 9.373 13.58 14.448 33.03 14.448 55.46 0 20.045-5.635 42.474-21.87 61.4M897.081 547.44c-17.499 20.063-42.51 18.871-58.764-2.944-21.887-31.278-19.377-87.315 5.635-115.577 20.623-23.604 45.635-21.834 62.52 4.713 8.127 11.81 13.11 28.894 13.11 48.38-1.245 23.603-5.616 47.188-22.5 65.482" p-id="1778" fill="#ffffff"></path></svg>