<svg t="1771702118344" class="icon" viewBox="0 0 1024 1024" version="1.1" xmlns="http://www.w3.org/2000/svg" p-id="3754" width="200" height="200"><path d="M502.709073 164.039805C494.616976 35.964878 393.116098 63.937561 393.116098 63.937561 293.313561 100.401951 339.668293 193.610927 339.668293 193.610927l160.842927 278.12839 2.197853-307.699512zM856.963122 504.407415c128.074927-8.192 99.902439-109.692878 99.902439-109.692878C920.401171 294.712195 827.192195 341.266732 827.192195 341.266732L549.163707 502.509268l307.799415 1.898147zM669.446244 202.502244c54.04722-116.486244-48.652488-140.163122-48.652488-140.163122-105.197268-15.684683-108.893659 88.413659-108.893658 88.413658l8.791414 321.186342 148.754732-269.436878zM485.126244 489.022439L220.184976 339.068878s-96.605659-47.753366-26.074537-148.954537c0 0 71.530146-56.844488 130.67239 14.685659l160.343415 284.222439zM470.24078 502.709073S200.803902 343.564488 198.506146 345.762341c0 0-100.102244-48.952195-131.871219 53.447805 0 0-20.380098 81.92 62.538927 105.796683l341.066926-2.297756zM475.93522 520.891317H134.868293s-96.605659 19.381073-60.341073 121.681171c0 0 25.075512 73.927805 112.490146 39.761171l288.917854-161.442342zM487.324098 540.27239L208.796098 691.42478s-73.827902 51.150049-20.380098 134.168976c0 0 83.018927 85.21678 154.549073-28.372293C414.595122 683.532488 487.324098 540.27239 487.324098 540.27239zM499.811902 561.851317L345.262829 823.296s-54.646634 81.92 34.066732 131.87122c0 0 95.606634 45.45561 122.780098-79.522342l-2.297757-313.793561zM517.994146 557.355707l-2.297756 307.99922s2.297756 118.184585 111.491122 94.407805c0 0 80.721171-19.381073 59.142244-113.688976l-168.33561-288.718049zM531.580878 539.073561l147.85561 267.139122s61.340098 90.91122 141.062244 29.571122c0 0 79.522341-67.034537-10.190049-142.061268l-278.727805-154.648976zM549.863024 522.090146l307.000196-1.198829s117.085659-2.297756 88.713365 118.184585c0 0-31.768976 86.41561-131.871219 38.662244L549.863024 522.090146zM532.779707 483.328l1.398634-2.597463L679.336585 219.585561s38.562341-86.41561 138.664586-31.768976c0 0 79.622244 64.836683-8.99122 145.557854L532.779707 483.328z" p-id="3755" fill="#ffffff"></path></svg>